<svg width="22" height="24" viewBox="0 0 22 24" fill="none" xmlns="http://www.w3.org/2000/svg">
<path d="M14.3029 14.4932C14.023 14.1879 13.5485 14.1672 13.2432 14.4471C12.9379 14.727 12.9172 15.2015 13.1971 15.5068L14.3029 14.4932ZM18.6971 21.5068C18.977 21.8121 19.4515 21.8328 19.7568 21.5529C20.0621 21.273 20.0828 20.7985 19.8029 20.4932L18.6971 21.5068ZM9.16667 16.25C6.09715 16.25 3.5 13.5145 3.5 10H2C2 14.2174 5.14853 17.75 9.16667 17.75V16.25ZM14.8333 10C14.8333 13.5145 12.2362 16.25 9.16667 16.25V17.75C13.1848 17.75 16.3333 14.2174 16.3333 10H14.8333ZM9.16667 3.75C12.2362 3.75 14.8333 6.48546 14.8333 10H16.3333C16.3333 5.78256 13.1848 2.25 9.16667 2.25V3.75ZM9.16667 2.25C5.14853 2.25 2 5.78256 2 10H3.5C3.5 6.48546 6.09715 3.75 9.16667 3.75V2.25ZM13.1971 15.5068L18.6971 21.5068L19.8029 20.4932L14.3029 14.4932L13.1971 15.5068Z" fill="black"/>
</svg>
