<svg width="35" height="34" viewBox="0 0 35 34" fill="none" xmlns="http://www.w3.org/2000/svg">
<path fill-rule="evenodd" clip-rule="evenodd" d="M18.7662 3.6382C18.5315 3.15242 18.0395 2.84375 17.5 2.84375C16.9605 2.84375 16.4685 3.15242 16.2338 3.6382L12.5017 11.3623L4.16855 12.5991C3.64249 12.6772 3.20548 13.0454 3.03923 13.5505C2.87298 14.0557 3.00594 14.6114 3.38281 14.9867L9.43033 21.0078L8.00148 29.5171C7.91261 30.0463 8.13268 30.58 8.56874 30.8927C9.0048 31.2055 9.58084 31.2428 10.0536 30.9889L17.5 26.9903L24.9464 30.9889C25.4192 31.2428 25.9952 31.2055 26.4313 30.8927C26.8673 30.58 27.0874 30.0463 26.9985 29.5171L25.5697 21.0078L31.6172 14.9867C31.9941 14.6114 32.127 14.0557 31.9608 13.5505C31.7945 13.0454 31.3575 12.6772 30.8315 12.5991L22.4983 11.3623L18.7662 3.6382ZM14.7104 13.2559L17.5 7.48234L20.2897 13.2559C20.4922 13.675 20.889 13.9668 21.3494 14.0351L27.6478 14.9699L23.0703 19.5275C22.7473 19.8491 22.6002 20.3073 22.6757 20.7569L23.7499 27.154L18.1653 24.1552C17.7498 23.9321 17.2502 23.9321 16.8347 24.1552L11.2502 27.154L12.3243 20.7569C12.3998 20.3073 12.2527 19.8491 11.9297 19.5275L7.35218 14.9699L13.6506 14.0351C14.1111 13.9668 14.5078 13.675 14.7104 13.2559Z" fill="black"/>
</svg>
